<svg width="1480" height="810" xmlns="http://www.w3.org/2000/svg" xmlns:xlink="http://www.w3.org/1999/xlink"><rect x="0" y="0" width="1480" height="810" rx="5" ry="5" style="fill:#282d35"/><circle cx="20" cy="20" r="7" style="fill:#ff5f58"/><circle cx="43" cy="20" r="7" style="fill:#ffbd2e"/><circle cx="66" cy="20" r="7" style="fill:#18c132"/><g transform="translate(20,60)"><g style="animation-duration:14.94s;animation-iteration-count:infinite;animation-name:k;animation-timing-function:steps(1,end);font-family:Monaco,Consolas,Menlo,'Bitstream Vera Sans Mono','Powerline Symbols',monospace;font-size:20px"><style>@keyframes k {61.620%{transform:translateX(-0px)}66.272%{transform:translateX(-1480px)}68.341%{transform:translateX(-2960px)}73.000%{transform:translateX(-4440px)}76.943%{transform:translateX(-5920px)}77.319%{transform:translateX(-7400px)}78.321%{transform:translateX(-8880px)}79.744%{transform:translateX(-10360px)}83.308%{transform:translateX(-11840px)}83.317%{transform:translateX(-13320px)}100.000%{transform:translateX(-14800px)}}.a{fill:#e5e5e5}</style><g transform="translate(0)"><text x="0" y="0" class="a">cf-content-types-generator</text></g><g transform="translate(1480)"><text x="0" y="0" class="a">cf-content-types-generator</text></g><g transform="translate(2960)"><text x="0" y="0" class="a">cf-content-types-generator</text><text x="324" y="0" class="a">-</text></g><g transform="translate(4440)"><text x="0" y="0" class="a">cf-content-types-generator</text><text x="324" y="0" class="a">--</text></g><g transform="translate(5920)"><text x="0" y="0" class="a">cf-content-types-generator</text><text x="324" y="0" class="a">--h</text></g><g transform="translate(7400)"><text x="0" y="0" class="a">cf-content-types-generator</text><text x="324" y="0" class="a">--he</text></g><g transform="translate(8880)"><text x="0" y="0" class="a">cf-content-types-generator</text><text x="324" y="0" class="a">--hel</text></g><g transform="translate(10360)"><text x="0" y="0" class="a">cf-content-types-generator</text><text x="324" y="0" class="a">--help</text></g><g transform="translate(11840)"><text x="0" y="0" class="a">cf-content-types-generator</text><text x="324" y="0" class="a">--help</text></g><g transform="translate(13320)"><text x="0" y="0" class="a">cf-content-types-generator</text><text x="324" y="0" class="a">--help</text><text x="0" y="25" class="a">/bin/sh:</text><text x="108" y="25" class="a">1:</text><text x="144" y="25" class="a">cf-content-types-generator:</text><text x="480" y="25" class="a">not</text><text x="528" y="25" class="a">found</text></g><g transform="translate(14800)"><text x="0" y="0" class="a">cf-content-types-generator</text><text x="324" y="0" class="a">--help</text><text x="0" y="25" class="a">/bin/sh:</text><text x="108" y="25" class="a">1:</text><text x="144" y="25" class="a">cf-content-types-generator:</text><text x="480" y="25" class="a">not</text><text x="528" y="25" class="a">found</text></g></g></g></svg>