<svg width="1480" height="810" xmlns="http://www.w3.org/2000/svg" xmlns:xlink="http://www.w3.org/1999/xlink"><rect x="0" y="0" width="1480" height="810" rx="5" ry="5" style="fill:#282d35"/><circle cx="20" cy="20" r="7" style="fill:#ff5f58"/><circle cx="43" cy="20" r="7" style="fill:#ffbd2e"/><circle cx="66" cy="20" r="7" style="fill:#18c132"/><g transform="translate(20,60)"><g style="animation-duration:27.72s;animation-iteration-count:infinite;animation-name:k;animation-timing-function:steps(1,end);font-family:Monaco,Consolas,Menlo,'Bitstream Vera Sans Mono','Powerline Symbols',monospace;font-size:20px"><style>@keyframes k {7.140%{transform:translateX(-0px)}8.862%{transform:translateX(-1480px)}13.787%{transform:translateX(-2960px)}15.516%{transform:translateX(-4440px)}15.621%{transform:translateX(-5920px)}15.731%{transform:translateX(-7400px)}15.841%{transform:translateX(-8880px)}15.943%{transform:translateX(-10360px)}20.623%{transform:translateX(-11840px)}21.214%{transform:translateX(-13320px)}21.436%{transform:translateX(-14800px)}22.417%{transform:translateX(-16280px)}25.684%{transform:translateX(-17760px)}26.265%{transform:translateX(-19240px)}27.920%{transform:translateX(-20720px)}32.002%{transform:translateX(-22200px)}33.050%{transform:translateX(-23680px)}34.218%{transform:translateX(-25160px)}34.593%{transform:translateX(-26640px)}34.871%{transform:translateX(-28120px)}35.346%{transform:translateX(-29600px)}35.528%{transform:translateX(-31080px)}36.963%{transform:translateX(-32560px)}40.504%{transform:translateX(-34040px)}40.720%{transform:translateX(-35520px)}41.737%{transform:translateX(-37000px)}43.650%{transform:translateX(-38480px)}44.105%{transform:translateX(-39960px)}47.251%{transform:translateX(-41440px)}48.292%{transform:translateX(-42920px)}49.279%{transform:translateX(-44400px)}50.014%{transform:translateX(-45880px)}50.990%{transform:translateX(-47360px)}53.403%{transform:translateX(-48840px)}54.601%{transform:translateX(-50320px)}55.375%{transform:translateX(-51800px)}55.868%{transform:translateX(-53280px)}56.104%{transform:translateX(-54760px)}57.904%{transform:translateX(-56240px)}58.334%{transform:translateX(-57720px)}58.865%{transform:translateX(-59200px)}59.367%{transform:translateX(-60680px)}61.423%{transform:translateX(-62160px)}65.777%{transform:translateX(-63640px)}100.000%{transform:translateX(-65120px)}}.a{fill:#e5e5e5}</style><g transform="translate(0)"><text x="0" y="0" class="a">^[[A</text></g><g transform="translate(1480)"><text x="0" y="0" class="a">^[[A^[[A</text></g><g transform="translate(2960)"><text x="0" y="0" class="a">^[[A^[[</text></g><g transform="translate(4440)"><text x="0" y="0" class="a">^[[A^[</text></g><g transform="translate(5920)"><text x="0" y="0" class="a">^[[A</text></g><g transform="translate(7400)"><text x="0" y="0" class="a">^[[</text></g><g transform="translate(8880)"><text x="0" y="0" class="a">^[</text></g><g transform="translate(10360)"/><g transform="translate(11840)"><text x="0" y="0" class="a">n</text></g><g transform="translate(13320)"><text x="0" y="0" class="a">no</text></g><g transform="translate(14800)"><text x="0" y="0" class="a">nod</text></g><g transform="translate(16280)"><text x="0" y="0" class="a">node</text></g><g transform="translate(17760)"><text x="0" y="0" class="a">node</text></g><g transform="translate(19240)"><text x="0" y="0" class="a">node</text><text x="60" y="0" class="a">.</text></g><g transform="translate(20720)"><text x="0" y="0" class="a">node</text><text x="60" y="0" class="a">./</text></g><g transform="translate(22200)"><text x="0" y="0" class="a">node</text><text x="60" y="0" class="a">./n</text></g><g transform="translate(23680)"><text x="0" y="0" class="a">node</text><text x="60" y="0" class="a">./no</text></g><g transform="translate(25160)"><text x="0" y="0" class="a">node</text><text x="60" y="0" class="a">./n</text></g><g transform="translate(26640)"><text x="0" y="0" class="a">node</text><text x="60" y="0" class="a">./</text></g><g transform="translate(28120)"><text x="0" y="0" class="a">node</text><text x="60" y="0" class="a">./b</text></g><g transform="translate(29600)"><text x="0" y="0" class="a">node</text><text x="60" y="0" class="a">./bi</text></g><g transform="translate(31080)"><text x="0" y="0" class="a">node</text><text x="60" y="0" class="a">./bin</text></g><g transform="translate(32560)"><text x="0" y="0" class="a">node</text><text x="60" y="0" class="a">./bin/</text></g><g transform="translate(34040)"><text x="0" y="0" class="a">node</text><text x="60" y="0" class="a">./bin/r</text></g><g transform="translate(35520)"><text x="0" y="0" class="a">node</text><text x="60" y="0" class="a">./bin/ri</text></g><g transform="translate(37000)"><text x="0" y="0" class="a">node</text><text x="60" y="0" class="a">./bin/rim</text></g><g transform="translate(38480)"><text x="0" y="0" class="a">node</text><text x="60" y="0" class="a">./bin/ri</text></g><g transform="translate(39960)"><text x="0" y="0" class="a">node</text><text x="60" y="0" class="a">./bin/r</text></g><g transform="translate(41440)"><text x="0" y="0" class="a">node</text><text x="60" y="0" class="a">./bin/ru</text></g><g transform="translate(42920)"><text x="0" y="0" class="a">node</text><text x="60" y="0" class="a">./bin/ru</text></g><g transform="translate(44400)"><text x="0" y="0" class="a">node</text><text x="60" y="0" class="a">./bin/ru</text></g><g transform="translate(45880)"><text x="0" y="0" class="a">node</text><text x="60" y="0" class="a">./bin/run</text></g><g transform="translate(47360)"><text x="0" y="0" class="a">node</text><text x="60" y="0" class="a">./bin/run</text></g><g transform="translate(48840)"><text x="0" y="0" class="a">node</text><text x="60" y="0" class="a">./bin/run</text><text x="180" y="0" class="a">-</text></g><g transform="translate(50320)"><text x="0" y="0" class="a">node</text><text x="60" y="0" class="a">./bin/run</text><text x="180" y="0" class="a">--</text></g><g transform="translate(51800)"><text x="0" y="0" class="a">node</text><text x="60" y="0" class="a">./bin/run</text><text x="180" y="0" class="a">--v</text></g><g transform="translate(53280)"><text x="0" y="0" class="a">node</text><text x="60" y="0" class="a">./bin/run</text><text x="180" y="0" class="a">--ve</text></g><g transform="translate(54760)"><text x="0" y="0" class="a">node</text><text x="60" y="0" class="a">./bin/run</text><text x="180" y="0" class="a">--ver</text></g><g transform="translate(56240)"><text x="0" y="0" class="a">node</text><text x="60" y="0" class="a">./bin/run</text><text x="180" y="0" class="a">--vers</text></g><g transform="translate(57720)"><text x="0" y="0" class="a">node</text><text x="60" y="0" class="a">./bin/run</text><text x="180" y="0" class="a">--versi</text></g><g transform="translate(59200)"><text x="0" y="0" class="a">node</text><text x="60" y="0" class="a">./bin/run</text><text x="180" y="0" class="a">--versio</text></g><g transform="translate(60680)"><text x="0" y="0" class="a">node</text><text x="60" y="0" class="a">./bin/run</text><text x="180" y="0" class="a">--version</text></g><g transform="translate(62160)"><text x="0" y="0" class="a">node</text><text x="60" y="0" class="a">./bin/run</text><text x="180" y="0" class="a">--version</text></g><g transform="translate(63640)"><text x="0" y="0" class="a">node</text><text x="60" y="0" class="a">./bin/run</text><text x="180" y="0" class="a">--version</text><text x="48" y="25" class="a">TypeError:</text><text x="180" y="25" class="a">Parsing</text><text x="276" y="25" class="a">--version</text><text x="96" y="50" class="a">this.jsonEnabled</text><text x="300" y="50" class="a">is</text><text x="336" y="50" class="a">not</text><text x="384" y="50" class="a">a</text><text x="408" y="50" class="a">function</text><text x="48" y="75" class="a">See</text><text x="96" y="75" class="a">more</text><text x="156" y="75" class="a">help</text><text x="216" y="75" class="a">with</text><text x="276" y="75" class="a">--help</text></g><g transform="translate(65120)"><text x="0" y="0" class="a">node</text><text x="60" y="0" class="a">./bin/run</text><text x="180" y="0" class="a">--version</text><text x="48" y="25" class="a">TypeError:</text><text x="180" y="25" class="a">Parsing</text><text x="276" y="25" class="a">--version</text><text x="96" y="50" class="a">this.jsonEnabled</text><text x="300" y="50" class="a">is</text><text x="336" y="50" class="a">not</text><text x="384" y="50" class="a">a</text><text x="408" y="50" class="a">function</text><text x="48" y="75" class="a">See</text><text x="96" y="75" class="a">more</text><text x="156" y="75" class="a">help</text><text x="216" y="75" class="a">with</text><text x="276" y="75" class="a">--help</text></g></g></g></svg>