<svg width="1480" height="810" xmlns="http://www.w3.org/2000/svg" xmlns:xlink="http://www.w3.org/1999/xlink"><rect x="0" y="0" width="1480" height="810" rx="5" ry="5" style="fill:#282d35"/><circle cx="20" cy="20" r="7" style="fill:#ff5f58"/><circle cx="43" cy="20" r="7" style="fill:#ffbd2e"/><circle cx="66" cy="20" r="7" style="fill:#18c132"/><g transform="translate(20,60)"><g style="animation-duration:11.67s;animation-iteration-count:infinite;animation-name:k;animation-timing-function:steps(1,end);font-family:Monaco,Consolas,Menlo,'Bitstream Vera Sans Mono','Powerline Symbols',monospace;font-size:20px"><style>@keyframes k {12.306%{transform:translateX(-0px)}14.268%{transform:translateX(-1480px)}16.853%{transform:translateX(-2960px)}17.339%{transform:translateX(-4440px)}24.101%{transform:translateX(-5920px)}25.389%{transform:translateX(-7400px)}27.516%{transform:translateX(-8880px)}36.742%{transform:translateX(-10360px)}38.329%{transform:translateX(-11840px)}38.967%{transform:translateX(-13320px)}45.465%{transform:translateX(-14800px)}49.803%{transform:translateX(-16280px)}50.868%{transform:translateX(-17760px)}52.806%{transform:translateX(-19240px)}54.918%{transform:translateX(-20720px)}57.141%{transform:translateX(-22200px)}57.986%{transform:translateX(-23680px)}61.508%{transform:translateX(-25160px)}62.126%{transform:translateX(-26640px)}63.277%{transform:translateX(-28120px)}67.096%{transform:translateX(-29600px)}71.467%{transform:translateX(-31080px)}81.555%{transform:translateX(-32560px)}81.641%{transform:translateX(-34040px)}100.000%{transform:translateX(-35520px)}}.a{fill:#e5e5e5}</style><g transform="translate(0)"><text x="0" y="0" class="a">n</text></g><g transform="translate(1480)"><text x="0" y="0" class="a">no</text></g><g transform="translate(2960)"><text x="0" y="0" class="a">nod</text></g><g transform="translate(4440)"><text x="0" y="0" class="a">node</text></g><g transform="translate(5920)"><text x="0" y="0" class="a">node</text></g><g transform="translate(7400)"><text x="0" y="0" class="a">node</text><text x="60" y="0" class="a">.</text></g><g transform="translate(8880)"><text x="0" y="0" class="a">node</text><text x="60" y="0" class="a">./</text></g><g transform="translate(10360)"><text x="0" y="0" class="a">node</text><text x="60" y="0" class="a">./b</text></g><g transform="translate(11840)"><text x="0" y="0" class="a">node</text><text x="60" y="0" class="a">./bi</text></g><g transform="translate(13320)"><text x="0" y="0" class="a">node</text><text x="60" y="0" class="a">./bin</text></g><g transform="translate(14800)"><text x="0" y="0" class="a">node</text><text x="60" y="0" class="a">./bin/</text></g><g transform="translate(16280)"><text x="0" y="0" class="a">node</text><text x="60" y="0" class="a">./bin/r</text></g><g transform="translate(17760)"><text x="0" y="0" class="a">node</text><text x="60" y="0" class="a">./bin/ru</text></g><g transform="translate(19240)"><text x="0" y="0" class="a">node</text><text x="60" y="0" class="a">./bin/run</text></g><g transform="translate(20720)"><text x="0" y="0" class="a">node</text><text x="60" y="0" class="a">./bin/run</text></g><g transform="translate(22200)"><text x="0" y="0" class="a">node</text><text x="60" y="0" class="a">./bin/run</text><text x="180" y="0" class="a">-</text></g><g transform="translate(23680)"><text x="0" y="0" class="a">node</text><text x="60" y="0" class="a">./bin/run</text><text x="180" y="0" class="a">--</text></g><g transform="translate(25160)"><text x="0" y="0" class="a">node</text><text x="60" y="0" class="a">./bin/run</text><text x="180" y="0" class="a">--h</text></g><g transform="translate(26640)"><text x="0" y="0" class="a">node</text><text x="60" y="0" class="a">./bin/run</text><text x="180" y="0" class="a">--he</text></g><g transform="translate(28120)"><text x="0" y="0" class="a">node</text><text x="60" y="0" class="a">./bin/run</text><text x="180" y="0" class="a">--hel</text></g><g transform="translate(29600)"><text x="0" y="0" class="a">node</text><text x="60" y="0" class="a">./bin/run</text><text x="180" y="0" class="a">--help</text></g><g transform="translate(31080)"><text x="0" y="0" class="a">node</text><text x="60" y="0" class="a">./bin/run</text><text x="180" y="0" class="a">--help</text></g><g transform="translate(32560)"><text x="0" y="0" class="a">node</text><text x="60" y="0" class="a">./bin/run</text><text x="180" y="0" class="a">--help</text><text x="0" y="25" class="a">Contentful</text><text x="132" y="25" class="a">Content</text><text x="228" y="25" class="a">Types</text><text x="300" y="25" class="a">(TS</text><text x="348" y="25" class="a">Definitions)</text><text x="504" y="25" class="a">Generator</text></g><g transform="translate(34040)"><text x="0" y="0" class="a">node</text><text x="60" y="0" class="a">./bin/run</text><text x="180" y="0" class="a">--help</text><text x="0" y="25" class="a">Contentful</text><text x="132" y="25" class="a">Content</text><text x="228" y="25" class="a">Types</text><text x="300" y="25" class="a">(TS</text><text x="348" y="25" class="a">Definitions)</text><text x="504" y="25" class="a">Generator</text><text x="0" y="75" class="a">USAGE</text><text x="24" y="100" class="a">$</text><text x="48" y="100" class="a">cf-content-types-generator</text><text x="384" y="100" class="a">[FILE]</text><text x="468" y="100" class="a">[-v]</text><text x="528" y="100" class="a">[-h]</text><text x="588" y="100" class="a">[-o</text><text x="636" y="100" class="a">&lt;value>]</text><text x="744" y="100" class="a">[-p]</text><text x="804" y="100" class="a">[-X]</text><text x="864" y="100" class="a">[-l]</text><text x="924" y="100" class="a">[-d]</text><text x="984" y="100" class="a">[-g]</text><text x="1044" y="100" class="a">[-r]</text><text x="1104" y="100" class="a">[-s</text><text x="48" y="125" class="a">&lt;value>]</text><text x="156" y="125" class="a">[-t</text><text x="204" y="125" class="a">&lt;value>]</text><text x="312" y="125" class="a">[-e</text><text x="360" y="125" class="a">&lt;value>]</text><text x="468" y="125" class="a">[-a</text><text x="516" y="125" class="a">&lt;value>]</text><text x="0" y="175" class="a">ARGUMENTS</text><text x="24" y="200" class="a">FILE</text><text x="96" y="200" class="a">local</text><text x="168" y="200" class="a">export</text><text x="252" y="200" class="a">(.json)</text><text x="0" y="250" class="a">FLAGS</text><text x="24" y="275" class="a">-X,</text><text x="72" y="275" class="a">--v10</text><text x="348" y="275" class="a">create</text><text x="432" y="275" class="a">contentful.js</text><text x="600" y="275" class="a">v10</text><text x="648" y="275" class="a">types</text><text x="24" y="300" class="a">-a,</text><text x="72" y="300" class="a">--host=&lt;value></text><text x="348" y="300" class="a">[default:</text><text x="468" y="300" class="a">api.contentful.com]</text><text x="708" y="300" class="a">host</text><text x="24" y="325" class="a">-d,</text><text x="72" y="325" class="a">--jsdoc</text><text x="348" y="325" class="a">add</text><text x="396" y="325" class="a">JSDoc</text><text x="468" y="325" class="a">comments</text><text x="24" y="350" class="a">-e,</text><text x="72" y="350" class="a">--environment=&lt;value></text><text x="348" y="350" class="a">environment</text><text x="24" y="375" class="a">-g,</text><text x="72" y="375" class="a">--typeguard</text><text x="348" y="375" class="a">add</text><text x="396" y="375" class="a">type</text><text x="456" y="375" class="a">guards</text><text x="24" y="400" class="a">-h,</text><text x="72" y="400" class="a">--help</text><text x="348" y="400" class="a">Show</text><text x="408" y="400" class="a">CLI</text><text x="456" y="400" class="a">help.</text><text x="24" y="425" class="a">-l,</text><text x="72" y="425" class="a">--localized</text><text x="348" y="425" class="a">add</text><text x="396" y="425" class="a">localized</text><text x="516" y="425" class="a">types</text><text x="24" y="450" class="a">-o,</text><text x="72" y="450" class="a">--out=&lt;value></text><text x="348" y="450" class="a">output</text><text x="432" y="450" class="a">directory</text><text x="24" y="475" class="a">-p,</text><text x="72" y="475" class="a">--preserve</text><text x="348" y="475" class="a">preserve</text><text x="456" y="475" class="a">output</text><text x="540" y="475" class="a">folder</text><text x="24" y="500" class="a">-r,</text><text x="72" y="500" class="a">--response</text><text x="348" y="500" class="a">add</text><text x="396" y="500" class="a">response</text><text x="504" y="500" class="a">types</text><text x="24" y="525" class="a">-s,</text><text x="72" y="525" class="a">--spaceId=&lt;value></text><text x="348" y="525" class="a">space</text><text x="420" y="525" class="a">id</text><text x="24" y="550" class="a">-t,</text><text x="72" y="550" class="a">--token=&lt;value></text><text x="348" y="550" class="a">management</text><text x="480" y="550" class="a">token</text><text x="24" y="575" class="a">-v,</text><text x="72" y="575" class="a">--version</text><text x="348" y="575" class="a">Show</text><text x="408" y="575" class="a">CLI</text><text x="456" y="575" class="a">version.</text><text x="0" y="625" class="a">DESCRIPTION</text><text x="24" y="650" class="a">Contentful</text><text x="156" y="650" class="a">Content</text><text x="252" y="650" class="a">Types</text><text x="324" y="650" class="a">(TS</text><text x="372" y="650" class="a">Definitions)</text><text x="528" y="650" class="a">Generator</text></g><g transform="translate(35520)"><text x="0" y="0" class="a">node</text><text x="60" y="0" class="a">./bin/run</text><text x="180" y="0" class="a">--help</text><text x="0" y="25" class="a">Contentful</text><text x="132" y="25" class="a">Content</text><text x="228" y="25" class="a">Types</text><text x="300" y="25" class="a">(TS</text><text x="348" y="25" class="a">Definitions)</text><text x="504" y="25" class="a">Generator</text><text x="0" y="75" class="a">USAGE</text><text x="24" y="100" class="a">$</text><text x="48" y="100" class="a">cf-content-types-generator</text><text x="384" y="100" class="a">[FILE]</text><text x="468" y="100" class="a">[-v]</text><text x="528" y="100" class="a">[-h]</text><text x="588" y="100" class="a">[-o</text><text x="636" y="100" class="a">&lt;value>]</text><text x="744" y="100" class="a">[-p]</text><text x="804" y="100" class="a">[-X]</text><text x="864" y="100" class="a">[-l]</text><text x="924" y="100" class="a">[-d]</text><text x="984" y="100" class="a">[-g]</text><text x="1044" y="100" class="a">[-r]</text><text x="1104" y="100" class="a">[-s</text><text x="48" y="125" class="a">&lt;value>]</text><text x="156" y="125" class="a">[-t</text><text x="204" y="125" class="a">&lt;value>]</text><text x="312" y="125" class="a">[-e</text><text x="360" y="125" class="a">&lt;value>]</text><text x="468" y="125" class="a">[-a</text><text x="516" y="125" class="a">&lt;value>]</text><text x="0" y="175" class="a">ARGUMENTS</text><text x="24" y="200" class="a">FILE</text><text x="96" y="200" class="a">local</text><text x="168" y="200" class="a">export</text><text x="252" y="200" class="a">(.json)</text><text x="0" y="250" class="a">FLAGS</text><text x="24" y="275" class="a">-X,</text><text x="72" y="275" class="a">--v10</text><text x="348" y="275" class="a">create</text><text x="432" y="275" class="a">contentful.js</text><text x="600" y="275" class="a">v10</text><text x="648" y="275" class="a">types</text><text x="24" y="300" class="a">-a,</text><text x="72" y="300" class="a">--host=&lt;value></text><text x="348" y="300" class="a">[default:</text><text x="468" y="300" class="a">api.contentful.com]</text><text x="708" y="300" class="a">host</text><text x="24" y="325" class="a">-d,</text><text x="72" y="325" class="a">--jsdoc</text><text x="348" y="325" class="a">add</text><text x="396" y="325" class="a">JSDoc</text><text x="468" y="325" class="a">comments</text><text x="24" y="350" class="a">-e,</text><text x="72" y="350" class="a">--environment=&lt;value></text><text x="348" y="350" class="a">environment</text><text x="24" y="375" class="a">-g,</text><text x="72" y="375" class="a">--typeguard</text><text x="348" y="375" class="a">add</text><text x="396" y="375" class="a">type</text><text x="456" y="375" class="a">guards</text><text x="24" y="400" class="a">-h,</text><text x="72" y="400" class="a">--help</text><text x="348" y="400" class="a">Show</text><text x="408" y="400" class="a">CLI</text><text x="456" y="400" class="a">help.</text><text x="24" y="425" class="a">-l,</text><text x="72" y="425" class="a">--localized</text><text x="348" y="425" class="a">add</text><text x="396" y="425" class="a">localized</text><text x="516" y="425" class="a">types</text><text x="24" y="450" class="a">-o,</text><text x="72" y="450" class="a">--out=&lt;value></text><text x="348" y="450" class="a">output</text><text x="432" y="450" class="a">directory</text><text x="24" y="475" class="a">-p,</text><text x="72" y="475" class="a">--preserve</text><text x="348" y="475" class="a">preserve</text><text x="456" y="475" class="a">output</text><text x="540" y="475" class="a">folder</text><text x="24" y="500" class="a">-r,</text><text x="72" y="500" class="a">--response</text><text x="348" y="500" class="a">add</text><text x="396" y="500" class="a">response</text><text x="504" y="500" class="a">types</text><text x="24" y="525" class="a">-s,</text><text x="72" y="525" class="a">--spaceId=&lt;value></text><text x="348" y="525" class="a">space</text><text x="420" y="525" class="a">id</text><text x="24" y="550" class="a">-t,</text><text x="72" y="550" class="a">--token=&lt;value></text><text x="348" y="550" class="a">management</text><text x="480" y="550" class="a">token</text><text x="24" y="575" class="a">-v,</text><text x="72" y="575" class="a">--version</text><text x="348" y="575" class="a">Show</text><text x="408" y="575" class="a">CLI</text><text x="456" y="575" class="a">version.</text><text x="0" y="625" class="a">DESCRIPTION</text><text x="24" y="650" class="a">Contentful</text><text x="156" y="650" class="a">Content</text><text x="252" y="650" class="a">Types</text><text x="324" y="650" class="a">(TS</text><text x="372" y="650" class="a">Definitions)</text><text x="528" y="650" class="a">Generator</text></g></g></g></svg>